<?xml version="1.0" encoding="utf-8"?>
<!-- Generator: Adobe Illustrator 19.0.0, SVG Export Plug-In . SVG Version: 6.00 Build 0)  -->
<svg version="1.1" id="layer" xmlns="http://www.w3.org/2000/svg" xmlns:xlink="http://www.w3.org/1999/xlink" x="0px" y="0px"
	 viewBox="-153 -46 652 652" style="enable-background:new -153 -46 652 652;" xml:space="preserve">
<style type="text/css">
	.st0{fill:#3A7BC8;}
	.st1{fill:#B4A169;}
</style>
<path class="st0" d="M86.3,300.9c0,10-0.3,14.5-2.8,19.1c-4.8,9.6-17.8,18.6-40.7,18.6c-18.3,0-30.9-5-37.9-14.5
	c-4.3-6.3-5.7-9.1-5.7-24.6v-78.8h29.9v75.6c0,10.6,3.3,17.8,13.8,17.8c10.6,0,13.6-6,13.6-17.3v-76.1h29.8V300.9z"/>
<polygon class="st0" points="151,336.6 151,287.9 127.2,287.9 127.2,336.6 97.5,336.6 97.5,220.8 127.2,220.8 127.2,263.3 
	151,263.3 151,220.8 180.7,220.8 180.7,336.6 "/>
<g>
	<g>
		<path class="st0" d="M248.1,336.6l-20.4-40.2c-3-6-6.5-14.3-9-21.8c0.7,4.5,1.7,15.1,1.7,29.4v32.6h-28.3V220.8h28.6l21.1,39.7
			c3.3,6.2,6.8,14.3,9.6,22.1c-0.8-6.8-1-18.3-1-25.9v-35.9h28.3v115.9H248.1z"/>
		<g>
			<path class="st1" d="M-50.1,243.4c-0.8,5.4-2.6,9-1.1,16.7c2.5,13.1,11,12.6,11.2,26.5c0,0.2,0.2,0.4,0.4,0.4
				c0.2,0,0.3-0.1,0.4-0.2c4.3-6.7,7-15.2,7.3-24.9c0.3-13.6-5.6-25.2-15.5-33.4c-0.1-0.1-0.1-0.2-0.1-0.3c0.1-0.1,0.2-0.1,0.3-0.1
				c14.9,9.9,22.1,26.2,18.6,43.4c-2.3,11.3-8,20.4-16.1,25.6c-3.7,2.3-5.9,3.2-9.9,4.2c-0.3,0.1-0.3,0.5,0,0.6
				c0.7,0.3,1.3,0.6,1.9,1c0.2,0.1,0.4,0.1,0.7,0c6.6-4.2,15.1-7.6,24-8.7c3-0.4,9.5-1.5,8.7-6.1c-0.4-1.8-0.6-3.3-1.1-5.1
				c-0.5-1.8,1.3-2.4,2.1-3.1c0.9-1.5,0.2-2.6-1.1-3.5c-0.4-0.3-0.4-0.6-0.1-0.7c1.4-0.1,2.6-1.3,2.3-2.4c-0.6-1.5-2.6-3.9-0.8-6.2
				c1-1.3,1.3-1.6,3.1-2c1.7-0.4,2.4-2.4,1.5-3.6c-3.2-4.1-5.7-7.1-8.9-11.1c-1.5-3,2.4-7.1-1.1-10.8c-8.9-9.3-20.5-17-36.6-18.9
				c-0.3,0-0.5,0.3-0.5,0.5c0.6,3.7,3.2,6.3,5.7,8.6C-51,233.4-49.4,238.5-50.1,243.4"/>
		</g>
		<g>
			<path class="st1" d="M-19.4,316.4c0.1-0.3,0-0.6-0.2-0.8c-3.5-1.3-7-0.3-10.3,0.7c-4.8,1.5-10,0.4-13.9-2.7
				c-4.3-3.4-6.5-6.8-13.8-9.3c-12.5-4.4-16.3,3.3-28.4-3.5c-0.2-0.1-0.4,0-0.5,0.2c-0.1,0.1-0.1,0.3,0,0.4
				c3.6,7.1,9.5,13.8,17.6,18.8c11.5,7.1,24.4,7.7,36.4,3.2c0.1-0.1,0.2,0,0.3,0.1c0.1,0.1,0,0.2-0.1,0.3c-16,8.1-33.5,6.2-46.5-5.5
				c-8.5-7.6-13.5-17.2-13.9-26.9c-0.1-4.4,0.2-6.7,1.3-10.7c0.1-0.3-0.3-0.5-0.5-0.3c-0.6,0.4-1.2,0.8-1.8,1.2
				c-0.2,0.2-0.3,0.3-0.3,0.6c0,10.2-1.8,22.4-6.5,33.2c-0.6,1.5,0,3.3,0.9,4.3c1.3,1.4,2.4,1,4,1.9c1.5,0.5,2.1,2.6,2.4,3.6
				c0.8,0.9,1.7,0.9,2.2,0.7c0.1-0.1,0.3,0,0.3,0c0.1,0.4,0.2,1.3,1,1.9c0.5,0.2,2.8-0.5,3.6,0.7c1.1,1.7,0,4.7,2.2,5.5
				c3.2,0.1,7.4-1.5,11.1-0.9c3.9,0.7,6.6,3.8,10.5,5.1c2.8,0.8,5.4,1.2,8.1,0.7C-41.8,336-29,329.4-19.4,316.4"/>
		</g>
		<g>
			<path class="st1" d="M-121.9,303.8c0.2,0.3,0.5,0.3,0.8,0.2c2.9-2.4,3.8-6,4.5-9.3c1.1-4.9,4.7-8.9,9.3-10.8c5-2,9-2.3,14.9-7.4
				c10-8.7,5.3-15.9,17.2-23.1c0.2-0.1,0.3-0.4,0.2-0.6c-0.1-0.1-0.3-0.2-0.4-0.2c-7.9-0.4-16.6,1.5-25,6
				c-11.8,6.5-18.8,17.5-20.9,30.2c0,0.1-0.1,0.2-0.2,0.2c-0.1,0-0.2-0.1-0.2-0.2c1.1-18,11.4-32.4,27.9-38
				c10.8-3.7,21.5-3.3,30,1.3c3.8,2.1,5.6,3.6,8.5,6.5c0.2,0.2,0.5,0,0.5-0.3c-0.1-0.8-0.1-1.5-0.1-2.1c0-0.3-0.1-0.5-0.4-0.6
				c-6.9-3.7-14-9.4-19.5-16.7c-1.9-2.5-5.7-6.8-9.6-4.6c-1.6,0.9-1.9,1.4-3.2,3c-1.1,1.4-3.5,0.9-4.4,0.2c-1.7-0.1-3.1,1.4-2.8,3
				c0.1,0.4-0.3,0.6-0.5,0.5c-0.8-1.2-3.4-1.5-4.3,0c-0.1,1-1.4,3.7-3.2,2.5c-2.1-1.7-4.4-1.6-5.4,0.3c-1.8,3.6-1.8,4.3-5.7,10.7
				c-2.2,2.8-8.9,5.2-10.2,8.9C-127.3,275.8-128,288.5-121.9,303.8"/>
		</g>
		<path class="st0" d="M309.5,224.6h-0.6l-0.1-0.6c-0.4-1.5-0.6-2.1-3.1-2.1h-3.5v12c0,2.8,0.3,3.3,2.6,3.3v0.6h-7.3v-0.6
			c2.2,0,2.6-0.5,2.6-3.3v-12h-3.5c-2.5,0-2.7,0.7-3.1,2.1l-0.1,0.6h-0.6l0.2-3.8h16.3L309.5,224.6z"/>
		<path class="st0" d="M312.3,228.9c-2.2,0-3.3,1.8-3.3,4.1c0,2.3,1.1,4.1,3.3,4.1c2.2,0,3.3-1.8,3.3-4.1
			C315.6,230.7,314.6,228.9,312.3,228.9 M312.3,238.2c-3,0-5.4-2.3-5.4-5.2c0-2.9,2.4-5.2,5.4-5.2c3,0,5.4,2.3,5.4,5.2
			C317.8,235.9,315.3,238.2,312.3,238.2"/>
		<path class="st0" d="M326.6,230.9c-0.5,0-0.9-0.5-0.9-1c0-0.6-0.3-0.9-0.9-0.9c-0.6,0-2.1,1.1-2.1,3.3v1.6c0,2.8,0.3,3.3,2.1,3.3
			v0.6h-6.2v-0.6c1.8,0,2.1-0.5,2.1-3.3v-1.4c0-2.8-0.4-3.3-2.1-3.3v-0.6l3.6-0.7c0.1,0.3,0.4,1.4,0.5,2c0.5-1.1,1.7-2,2.8-2
			c1.5,0,2.1,1,2.1,1.7C327.7,230.2,327.5,230.9,326.6,230.9"/>
		<path class="st0" d="M334.5,228.9c-2.2,0-3.3,1.8-3.3,4.1c0,2.3,1,4.1,3.3,4.1c2.2,0,3.2-1.8,3.2-4.1
			C337.7,230.7,336.7,228.9,334.5,228.9 M334.5,238.2c-3,0-5.4-2.3-5.4-5.2c0-2.9,2.5-5.2,5.4-5.2c3,0,5.4,2.3,5.4,5.2
			C339.9,235.9,337.4,238.2,334.5,238.2"/>
		<path class="st0" d="M348.6,227.8c2.4,0,3.5,1.8,3.5,4.2v1.8c0,2.8,0.3,3.3,2.1,3.3v0.6h-6.2v-0.6c1.7,0,2.1-0.5,2.1-3.3v-1.6
			c0-1.8-0.6-3-2.2-3c-1.5,0-3.1,1.3-3.1,2.8v1.8c0,2.9,0.2,3.3,1.9,3.3v0.6h-5.9v-0.6c1.8,0,2.1-0.5,2.1-3.3v-1.4
			c0-2.8-0.4-3.3-2.1-3.3v-0.6l3.6-0.7c0.1,0.3,0.4,1.4,0.5,2C345.6,228.9,346.8,227.8,348.6,227.8"/>
		<path class="st0" d="M354.4,229.3v-0.7c1.6-0.4,2.2-1.6,2.4-3.4h0.9v3.1h2.3v1h-2.3v5.7c0,1.4,0.4,2.1,1.2,2.1
			c0.5,0,1.1-0.4,1.7-1l0.5,0.5c-0.7,1-1.9,1.6-2.8,1.6c-1.5,0-2.5-1-2.5-3.2v-5.7H354.4z"/>
		<path class="st0" d="M367.2,228.9c-2.2,0-3.3,1.8-3.3,4.1c0,2.3,1,4.1,3.3,4.1c2.2,0,3.3-1.8,3.3-4.1
			C370.5,230.7,369.5,228.9,367.2,228.9 M367.2,238.2c-3,0-5.4-2.3-5.4-5.2c0-2.9,2.4-5.2,5.4-5.2c3,0,5.4,2.3,5.4,5.2
			C372.7,235.9,370.2,238.2,367.2,238.2"/>
		<path class="st0" d="M391,231.3v-0.6h7v0.6c-2.2,0-2.6,0.5-2.6,3.3v2.1c-3,0-4.2,1.5-7,1.5c-4.5,0-8.2-4-8.2-9c0-4.9,3.7-9,8.2-9
			c1.9,0,3.6,0.9,5,2.4c0.4-0.3,0.8-0.9,0.9-1.6h0.5v6.2h-0.5c-0.7-3.7-2.8-5.9-5.8-5.9c-4.3,0-5.9,4.4-5.9,7.9
			c0,3.5,1.4,7.7,6.4,7.7c2.3,0,4.4-1.3,4.4-3.9C393.5,231.9,392.8,231.3,391,231.3"/>
		<path class="st0" d="M405.9,231.2c0.3-0.9-0.2-2.3-1.9-2.3c-1.2,0-2.1,0.9-2.5,2.3H405.9z M404.7,237c0.9,0,2.2-0.5,3-1.3l0.5,0.6
			c-0.9,1-2.6,1.9-4.1,1.9c-3,0-5-2.3-5-5.2c0-3,2.5-5.2,5-5.2c2.4,0,4.3,2,3.7,4.5h-6.5C400.9,234.9,402,237,404.7,237"/>
		<path class="st0" d="M417.1,227.8c2.4,0,3.5,1.8,3.5,4.2v1.8c0,2.8,0.3,3.3,2.1,3.3v0.6h-6.2v-0.6c1.8,0,2.1-0.5,2.1-3.3v-1.6
			c0-1.8-0.6-3-2.2-3c-1.5,0-3.1,1.3-3.1,2.8v1.8c0,2.9,0.2,3.3,1.9,3.3v0.6h-5.9v-0.6c1.8,0,2.1-0.5,2.1-3.3v-1.4
			c0-2.8-0.4-3.3-2.1-3.3v-0.6l3.6-0.7c0.1,0.3,0.4,1.4,0.5,2C414.1,228.9,415.4,227.8,417.1,227.8"/>
		<path class="st0" d="M429.7,231.2c0.3-0.9-0.2-2.3-1.9-2.3c-1.2,0-2.1,0.9-2.5,2.3H429.7z M428.6,237c0.9,0,2.2-0.5,3-1.3l0.5,0.6
			c-0.9,1-2.6,1.9-4.1,1.9c-3,0-5-2.3-5-5.2c0-3,2.5-5.2,5-5.2c2.4,0,4.3,2,3.7,4.5h-6.5C424.8,234.9,425.8,237,428.6,237"/>
		<path class="st0" d="M440.8,230.9c-0.5,0-0.9-0.5-0.9-1c0-0.6-0.3-0.9-0.9-0.9c-0.6,0-2.1,1.1-2.1,3.3v1.6c0,2.8,0.3,3.3,2.1,3.3
			v0.6h-6.2v-0.6c1.8,0,2.1-0.5,2.1-3.3v-1.4c0-2.8-0.4-3.3-2.1-3.3v-0.6l3.6-0.7c0.1,0.3,0.4,1.4,0.5,2c0.5-1.1,1.8-2,2.8-2
			c1.5,0,2.1,1,2.1,1.7C441.9,230.2,441.7,230.9,440.8,230.9"/>
		<path class="st0" d="M448.5,232.6c-2.5,0.6-3.7,1.6-3.7,2.8c0,0.9,0.6,1.4,1.3,1.4c0.6,0,1.2-0.2,2.4-1.4V232.6z M450.4,238
			c-1.1,0-1.7-0.6-1.8-1.6c-1.3,1.2-2.3,1.7-3.4,1.7c-1.3,0-2.4-0.9-2.4-2.4c0-2.4,2.7-3.4,5.7-4c0-2.1-0.3-3-1.8-3
			c-0.6,0-1.5,0.5-1.5,1.4c0,0.6-0.4,1-0.9,1c-0.5,0-0.9-0.4-0.9-1c0-1.4,1.7-2.3,3.4-2.3c2.6,0,3.7,1.2,3.7,3.8v4.3
			c0,0.7,0.2,1.1,0.6,1.1c0.3,0,0.6-0.2,0.8-0.4l0.4,0.5C451.7,237.7,451,238,450.4,238"/>
		<path class="st0" d="M453.1,237.7v-0.6c1.8,0,2.1-0.5,2.1-3.3v-8.9c0-2.8-0.3-3.3-2.1-3.3V221l4-0.7v13.5c0,2.8,0.4,3.3,2.1,3.3
			v0.6H453.1z"/>
		<path class="st0" d="M309.5,249.3h-0.6l-0.1-0.6c-0.4-1.5-0.6-2.1-3.1-2.1h-3.5v12c0,2.8,0.3,3.3,2.6,3.3v0.6h-7.3v-0.6
			c2.2,0,2.6-0.5,2.6-3.3v-12h-3.5c-2.5,0-2.7,0.6-3.1,2.1l-0.1,0.6h-0.6l0.2-3.8h16.3L309.5,249.3z"/>
		<path class="st0" d="M312.3,253.6c-2.2,0-3.3,1.8-3.3,4.1c0,2.3,1.1,4.1,3.3,4.1c2.2,0,3.3-1.8,3.3-4.1
			C315.6,255.5,314.6,253.6,312.3,253.6 M312.3,262.9c-3,0-5.4-2.3-5.4-5.2c0-2.9,2.4-5.2,5.4-5.2c3,0,5.4,2.3,5.4,5.2
			C317.8,260.6,315.3,262.9,312.3,262.9"/>
		<path class="st0" d="M326.6,255.6c-0.5,0-0.9-0.5-0.9-1c0-0.6-0.3-0.9-0.9-0.9c-0.6,0-2.1,1-2.1,3.3v1.6c0,2.8,0.3,3.3,2.1,3.3
			v0.6h-6.2v-0.6c1.8,0,2.1-0.5,2.1-3.3v-1.4c0-2.8-0.4-3.3-2.1-3.3v-0.6l3.6-0.7c0.1,0.3,0.4,1.4,0.5,2c0.5-1.1,1.7-2,2.8-2
			c1.5,0,2.1,1.1,2.1,1.8C327.7,254.9,327.5,255.6,326.6,255.6"/>
		<path class="st0" d="M334.5,253.6c-2.2,0-3.3,1.8-3.3,4.1c0,2.3,1,4.1,3.3,4.1c2.2,0,3.2-1.8,3.2-4.1
			C337.7,255.5,336.7,253.6,334.5,253.6 M334.5,262.9c-3,0-5.4-2.3-5.4-5.2c0-2.9,2.5-5.2,5.4-5.2c3,0,5.4,2.3,5.4,5.2
			C339.9,260.6,337.4,262.9,334.5,262.9"/>
		<path class="st0" d="M348.6,252.6c2.4,0,3.5,1.8,3.5,4.2v1.8c0,2.8,0.3,3.3,2.1,3.3v0.6h-6.2v-0.6c1.7,0,2.1-0.5,2.1-3.3v-1.6
			c0-1.8-0.6-3-2.2-3c-1.5,0-3.1,1.3-3.1,2.8v1.8c0,2.9,0.2,3.3,1.9,3.3v0.6h-5.9v-0.6c1.8,0,2.1-0.5,2.1-3.3v-1.4
			c0-2.8-0.4-3.3-2.1-3.3v-0.6l3.6-0.7c0.1,0.3,0.4,1.4,0.5,2C345.6,253.6,346.8,252.6,348.6,252.6"/>
		<path class="st0" d="M354.4,254v-0.7c1.6-0.4,2.2-1.6,2.4-3.4h0.9v3.1h2.3v1h-2.3v5.7c0,1.4,0.4,2.1,1.2,2.1c0.5,0,1.1-0.4,1.7-1
			l0.5,0.5c-0.7,1-1.9,1.6-2.8,1.6c-1.5,0-2.5-1-2.5-3.2V254H354.4z"/>
		<path class="st0" d="M367.2,253.6c-2.2,0-3.3,1.8-3.3,4.1c0,2.3,1,4.1,3.3,4.1c2.2,0,3.3-1.8,3.3-4.1
			C370.5,255.5,369.5,253.6,367.2,253.6 M367.2,262.9c-3,0-5.4-2.3-5.4-5.2c0-2.9,2.4-5.2,5.4-5.2c3,0,5.4,2.3,5.4,5.2
			C372.7,260.6,370.2,262.9,367.2,262.9"/>
		<path class="st0" d="M386.2,262.9h-0.4l-4.3-14.4c-0.6-2.1-1-2.5-3.2-2.5v-0.6h7.6v0.6c-2.3,0-2.6,0.6-2.1,2.1l2.9,9.8l3.8-12.5
			h0.4l3.8,12.5l2.9-9.7c0.4-1.6,0-2.1-1.9-2.1v-0.6h6v0.6c-2.3,0-2.6,0.6-3.2,2.5l-4.4,14.4h-0.4l-3.8-12.5L386.2,262.9z"/>
		<path class="st0" d="M404.8,256c0.3-0.9-0.2-2.3-1.9-2.3c-1.2,0-2.2,0.9-2.5,2.3H404.8z M403.7,261.7c0.9,0,2.2-0.5,3-1.3l0.5,0.6
			c-0.9,1.1-2.6,1.9-4.1,1.9c-3,0-5-2.3-5-5.2c0-3,2.5-5.2,5-5.2c2.4,0,4.3,2,3.7,4.5h-6.5C399.9,259.7,400.9,261.7,403.7,261.7"/>
		<path class="st0" d="M412.1,262.9c-1.9,0-2.9-2-2.9,0h-0.5v-4.1h0.5c0,1.3,1,3.2,3,3.2c0.9,0,1.5-0.7,1.5-1.4
			c0-0.7-0.6-1.2-1.5-1.7l-1.5-0.8c-1.3-0.7-1.8-1.9-1.8-2.8c0-1.5,1.3-2.6,2.7-2.6c2,0,2.4,1.5,2.4,0h0.6v3.3h-0.6
			c0-1.2-0.8-2.4-2.2-2.4c-0.9,0-1.4,0.5-1.4,1.2c0,0.7,0.5,1,1.6,1.7l1.3,0.7c1.2,0.7,1.9,1.7,1.9,2.7
			C415.3,261.7,413.9,262.9,412.1,262.9"/>
		<path class="st0" d="M416.5,254v-0.7c1.6-0.4,2.2-1.6,2.4-3.4h0.9v3.1h2.3v1h-2.3v5.7c0,1.4,0.3,2.1,1.2,2.1c0.5,0,1.1-0.4,1.8-1
			l0.5,0.5c-0.7,1-1.9,1.6-2.8,1.6c-1.5,0-2.5-1-2.5-3.2V254H416.5z"/>
		<path class="st0" d="M430.6,256c0.3-0.9-0.2-2.3-1.9-2.3c-1.1,0-2.1,0.9-2.5,2.3H430.6z M429.5,261.7c0.9,0,2.2-0.5,3-1.3l0.5,0.6
			c-0.9,1.1-2.6,1.9-4.1,1.9c-2.9,0-5-2.3-5-5.2c0-3,2.5-5.2,5-5.2c2.4,0,4.3,2,3.7,4.5H426C425.7,259.7,426.7,261.7,429.5,261.7"/>
		<path class="st0" d="M441.7,255.6c-0.5,0-0.9-0.5-0.9-1c0-0.6-0.3-0.9-0.9-0.9c-0.6,0-2.1,1-2.1,3.3v1.6c0,2.8,0.3,3.3,2.1,3.3
			v0.6h-6.1v-0.6c1.8,0,2.1-0.5,2.1-3.3v-1.4c0-2.8-0.4-3.3-2.1-3.3v-0.6l3.6-0.7c0.1,0.3,0.4,1.4,0.5,2c0.5-1.1,1.7-2,2.8-2
			c1.5,0,2.1,1.1,2.1,1.8C442.8,254.9,442.6,255.6,441.7,255.6"/>
		<path class="st0" d="M451.6,252.6c2.4,0,3.5,1.8,3.5,4.2v1.8c0,2.8,0.3,3.3,2.1,3.3v0.6h-6.2v-0.6c1.7,0,2.1-0.5,2.1-3.3v-1.6
			c0-1.8-0.6-3-2.2-3c-1.5,0-3.1,1.3-3.1,2.8v1.8c0,2.9,0.2,3.3,1.9,3.3v0.6h-5.9v-0.6c1.8,0,2.1-0.5,2.1-3.3v-1.4
			c0-2.8-0.4-3.3-2.1-3.3v-0.6l3.6-0.7c0.1,0.3,0.4,1.4,0.5,2C448.6,253.6,449.9,252.6,451.6,252.6"/>
		<path class="st0" d="M303.8,275c0-2-1.1-3.7-3.4-3.7H298v7.5h2.4C302.7,278.7,303.8,277.1,303.8,275 M306.2,275
			c0,2.6-2,4.8-5.8,4.8H298v3.5c0,2.8,0.3,3.3,2.5,3.3v0.6h-7.3v-0.6c2.2,0,2.6-0.5,2.6-3.3v-9.2c0-2.8-0.3-3.3-2.6-3.3v-0.6h7.1
			C304.1,270.2,306.2,272.4,306.2,275"/>
		<path class="st0" d="M314.7,280.4c-0.5,0-1-0.5-1-1c0-0.6-0.3-0.9-0.9-0.9c-0.6,0-2.1,1-2.1,3.3v1.6c0,2.8,0.3,3.3,2.1,3.3v0.6
			h-6.1v-0.6c1.8,0,2.1-0.5,2.1-3.3v-1.4c0-2.8-0.4-3.3-2.1-3.3V278l3.6-0.7c0.1,0.3,0.4,1.4,0.5,2c0.5-1.1,1.7-2,2.8-2
			c1.5,0,2.1,1,2.1,1.8C315.7,279.7,315.5,280.4,314.7,280.4"/>
		<path class="st0" d="M319.6,274.5c-0.6,0-1.2-0.6-1.2-1.3c0-0.7,0.5-1.2,1.2-1.2c0.6,0,1.2,0.6,1.2,1.2
			C320.8,273.9,320.2,274.5,319.6,274.5 M316.5,287.2v-0.6c1.8,0,2.1-0.5,2.1-3.3v-1.4c0-2.8-0.3-3.3-2.1-3.3V278l4-0.7v6
			c0,2.8,0.3,3.3,2.1,3.3v0.6H316.5z"/>
		<path class="st0" d="M331.5,277.3c2.4,0,3.5,1.8,3.5,4.2v1.8c0,2.8,0.3,3.3,2.1,3.3v0.6h-6.1v-0.6c1.7,0,2.1-0.5,2.1-3.3v-1.6
			c0-1.8-0.6-3-2.2-3c-1.5,0-3.1,1.3-3.1,2.8v1.8c0,2.9,0.2,3.3,1.9,3.3v0.6h-5.9v-0.6c1.8,0,2.1-0.5,2.1-3.3v-1.4
			c0-2.8-0.4-3.3-2.1-3.3V278l3.6-0.7c0.1,0.3,0.4,1.4,0.5,2C328.4,278.4,329.7,277.3,331.5,277.3"/>
		<path class="st0" d="M339.4,282.7c0,2.3,1,3.8,3.3,3.8c0.9,0,2-0.4,2.9-1.3l0.5,0.6c-1,1.2-2.5,1.9-4,1.9c-3,0-4.8-2.1-4.8-4.9
			c0-3.3,2.6-5.4,4.8-5.4c2.2,0,3.2,1,3.2,2c0,0.5-0.3,1.2-1.2,1.2c-0.6,0-1-0.5-1-1.1c0-0.9-0.5-1.2-1-1.2
			C340.6,278.2,339.4,280.1,339.4,282.7"/>
		<path class="st0" d="M353.5,280.7c0.3-0.9-0.2-2.3-1.9-2.3c-1.2,0-2.2,0.9-2.5,2.3H353.5z M352.4,286.5c0.9,0,2.2-0.5,3-1.3
			l0.5,0.6c-0.9,1-2.6,1.9-4.1,1.9c-3,0-5-2.3-5-5.2c0-3,2.5-5.2,5-5.2c2.4,0,4.3,2,3.7,4.5h-6.5
			C348.5,284.4,349.6,286.5,352.4,286.5"/>
		<path class="st0" d="M360.5,287.7c-1.9,0-2.9-2-2.9,0h-0.5v-4.1h0.5c0,1.3,1,3.2,2.9,3.2c0.9,0,1.5-0.7,1.5-1.4
			c0-0.7-0.6-1.2-1.5-1.7l-1.5-0.9c-1.3-0.7-1.8-1.9-1.8-2.8c0-1.5,1.3-2.6,2.7-2.6c2,0,2.4,1.5,2.4,0h0.6v3.3h-0.6
			c0-1.2-0.8-2.4-2.2-2.4c-0.9,0-1.4,0.5-1.4,1.2c0,0.7,0.5,1,1.6,1.7l1.3,0.7c1.2,0.7,1.8,1.7,1.8,2.7
			C363.7,286.4,362.3,287.7,360.5,287.7"/>
		<path class="st0" d="M368.4,287.7c-1.9,0-2.9-2-2.9,0H365v-4.1h0.5c0,1.3,1,3.2,3,3.2c0.9,0,1.5-0.7,1.5-1.4
			c0-0.7-0.6-1.2-1.5-1.7l-1.5-0.9c-1.3-0.7-1.8-1.9-1.8-2.8c0-1.5,1.3-2.6,2.7-2.6c2,0,2.4,1.5,2.4,0h0.6v3.3h-0.6
			c0-1.2-0.8-2.4-2.2-2.4c-0.9,0-1.4,0.5-1.4,1.2c0,0.7,0.5,1,1.6,1.7l1.3,0.7c1.2,0.7,1.8,1.7,1.8,2.7
			C371.6,286.4,370.2,287.7,368.4,287.7"/>
		<path class="st0" d="M382.4,283.3c0,2.8,0.3,3.3,2.6,3.3v0.6h-6.1v-0.6c2.2,0,2.5-0.5,2.5-3.3v-9.2c0-2.8-0.3-3.3-2.5-3.3v-0.6
			h4.6l5.7,13.8l5.7-13.8h4.2v0.6c-2.3,0-2.6,0.5-2.6,3.3v9.2c0,2.8,0.3,3.3,2.6,3.3v0.6h-7.3v-0.6c2.2,0,2.6-0.5,2.6-3.3v-9.2
			l-5.6,13.6h-0.3l-6-14.4V283.3z"/>
		<path class="st0" d="M405.6,282c-2.6,0.6-3.7,1.6-3.7,2.8c0,0.9,0.6,1.4,1.3,1.4c0.6,0,1.2-0.2,2.4-1.4V282z M407.5,287.5
			c-1,0-1.7-0.6-1.8-1.6c-1.3,1.2-2.3,1.7-3.4,1.7c-1.3,0-2.4-0.9-2.4-2.4c0-2.4,2.7-3.5,5.7-4c0-2.1-0.3-3-1.8-3
			c-0.6,0-1.5,0.5-1.5,1.4c0,0.6-0.4,1-0.9,1c-0.5,0-0.9-0.4-0.9-1c0-1.4,1.7-2.3,3.4-2.3c2.6,0,3.7,1.2,3.7,3.8v4.3
			c0,0.7,0.2,1.1,0.6,1.1c0.3,0,0.6-0.2,0.7-0.4l0.4,0.5C408.8,287.2,408.1,287.5,407.5,287.5"/>
		<path class="st0" d="M418.1,280.4c-0.5,0-0.9-0.5-0.9-1c0-0.6-0.3-0.9-0.9-0.9c-0.6,0-2.1,1-2.1,3.3v1.6c0,2.8,0.3,3.3,2.1,3.3
			v0.6h-6.1v-0.6c1.8,0,2.1-0.5,2.1-3.3v-1.4c0-2.8-0.4-3.3-2.1-3.3V278l3.6-0.7c0.1,0.3,0.4,1.4,0.5,2c0.5-1.1,1.7-2,2.8-2
			c1.5,0,2.1,1,2.1,1.8C419.2,279.7,418.9,280.4,418.1,280.4"/>
		<path class="st0" d="M424.3,278.2c-1.3,0-2,1.3-2,2.9c0,1.6,0.6,2.9,2,2.9c1.3,0,1.9-1.3,1.9-2.9
			C426.3,279.5,425.6,278.2,424.3,278.2 M424.3,287.2c3.7,0.3,4.9,2,4.9,3.7c0,2.3-2.1,3.8-4.8,3.8c-4.5,0-6.3-3.5-3-5.3l0.5,0.3
			c-2.2,2.6,0.4,3.9,2.5,3.9c1.7,0,3.3-0.9,3.3-2.2c0-1.3-1.3-1.8-3.6-2c-2.2-0.2-3.8-0.9-3.8-2.6c0-1,0.9-1.8,2.3-2.3
			c-1.4-0.7-2.3-1.9-2.3-3.4c0-2.1,1.8-3.8,4-3.8c1.1,0,2,0.4,2.8,1.1c0.5-0.6,1.4-1.1,2-1.1c1.9,0,2,2.3,0.9,2.4
			c-1.2,0.1-0.5-1.3-1.6-1.3c-0.2,0-0.5,0.1-0.8,0.5c0.5,0.6,0.8,1.4,0.8,2.3c0,2.1-1.7,3.6-3.5,3.8c-1.2,0.1-3,0.4-3,1.2
			C421.8,286.9,423.4,287.1,424.3,287.2"/>
		<path class="st0" d="M437.3,282c-2.6,0.6-3.7,1.6-3.7,2.8c0,0.9,0.6,1.4,1.3,1.4c0.6,0,1.2-0.2,2.4-1.4V282z M439.2,287.5
			c-1,0-1.7-0.6-1.8-1.6c-1.3,1.2-2.3,1.7-3.4,1.7c-1.3,0-2.4-0.9-2.4-2.4c0-2.4,2.7-3.5,5.7-4c0-2.1-0.3-3-1.8-3
			c-0.6,0-1.5,0.5-1.5,1.4c0,0.6-0.4,1-0.9,1c-0.5,0-0.9-0.4-0.9-1c0-1.4,1.7-2.3,3.4-2.3c2.6,0,3.7,1.2,3.7,3.8v4.3
			c0,0.7,0.2,1.1,0.6,1.1c0.3,0,0.6-0.2,0.7-0.4l0.4,0.5C440.4,287.2,439.8,287.5,439.2,287.5"/>
		<path class="st0" d="M449.8,280.4c-0.5,0-1-0.5-1-1c0-0.6-0.3-0.9-0.9-0.9c-0.6,0-2.1,1-2.1,3.3v1.6c0,2.8,0.3,3.3,2.1,3.3v0.6
			h-6.1v-0.6c1.8,0,2.1-0.5,2.1-3.3v-1.4c0-2.8-0.4-3.3-2.1-3.3V278l3.6-0.7c0.1,0.3,0.4,1.4,0.5,2c0.5-1.1,1.7-2,2.8-2
			c1.5,0,2.1,1,2.1,1.8C450.9,279.7,450.6,280.4,449.8,280.4"/>
		<path class="st0" d="M458.5,280.7c0.3-0.9-0.2-2.3-1.9-2.3c-1.1,0-2.1,0.9-2.5,2.3H458.5z M457.4,286.5c0.9,0,2.2-0.5,3-1.3
			l0.5,0.6c-0.9,1-2.6,1.9-4.1,1.9c-2.9,0-5-2.3-5-5.2c0-3,2.5-5.2,5-5.2c2.4,0,4.3,2,3.7,4.5h-6.5
			C453.5,284.4,454.6,286.5,457.4,286.5"/>
		<path class="st0" d="M461.4,278.7v-0.7c1.6-0.4,2.2-1.6,2.4-3.4h0.9v3.1h2.3v1h-2.3v5.7c0,1.4,0.4,2.1,1.2,2.1
			c0.5,0,1.1-0.4,1.7-1l0.5,0.5c-0.8,1-1.9,1.6-2.8,1.6c-1.5,0-2.5-1-2.5-3.2v-5.7H461.4z"/>
		<path class="st0" d="M309.5,298.8h-0.6l-0.1-0.6c-0.4-1.5-0.6-2.1-3.1-2.1h-3.5v12c0,2.8,0.3,3.3,2.6,3.3v0.6h-7.3v-0.6
			c2.2,0,2.6-0.5,2.6-3.3v-12h-3.5c-2.5,0-2.7,0.7-3.1,2.1l-0.1,0.6h-0.6l0.2-3.8h16.3L309.5,298.8z"/>
		<path class="st0" d="M312.3,303.1c-2.2,0-3.3,1.8-3.3,4.1c0,2.3,1.1,4.1,3.3,4.1c2.2,0,3.3-1.8,3.3-4.1
			C315.6,304.9,314.6,303.1,312.3,303.1 M312.3,312.4c-3,0-5.4-2.3-5.4-5.2c0-2.9,2.4-5.2,5.4-5.2c3,0,5.4,2.3,5.4,5.2
			C317.8,310,315.3,312.4,312.3,312.4"/>
		<path class="st0" d="M326.6,305.1c-0.5,0-0.9-0.5-0.9-1c0-0.6-0.3-0.9-0.9-0.9c-0.6,0-2.1,1-2.1,3.3v1.6c0,2.8,0.3,3.3,2.1,3.3
			v0.6h-6.2v-0.6c1.8,0,2.1-0.5,2.1-3.3v-1.4c0-2.8-0.4-3.3-2.1-3.3v-0.6l3.6-0.7c0.1,0.3,0.4,1.4,0.5,2c0.5-1.1,1.7-2,2.8-2
			c1.5,0,2.1,1.1,2.1,1.8C327.7,304.4,327.5,305.1,326.6,305.1"/>
		<path class="st0" d="M334.5,303.1c-2.2,0-3.3,1.8-3.3,4.1c0,2.3,1,4.1,3.3,4.1c2.2,0,3.2-1.8,3.2-4.1
			C337.7,304.9,336.7,303.1,334.5,303.1 M334.5,312.4c-3,0-5.4-2.3-5.4-5.2c0-2.9,2.5-5.2,5.4-5.2c3,0,5.4,2.3,5.4,5.2
			C339.9,310,337.4,312.4,334.5,312.4"/>
		<path class="st0" d="M348.6,302c2.4,0,3.5,1.8,3.5,4.2v1.8c0,2.8,0.3,3.3,2.1,3.3v0.6h-6.2v-0.6c1.7,0,2.1-0.5,2.1-3.3v-1.6
			c0-1.8-0.6-3-2.2-3c-1.5,0-3.1,1.3-3.1,2.8v1.8c0,2.9,0.2,3.3,1.9,3.3v0.6h-5.9v-0.6c1.8,0,2.1-0.5,2.1-3.3v-1.4
			c0-2.8-0.4-3.3-2.1-3.3v-0.6l3.6-0.7c0.1,0.3,0.4,1.4,0.5,2C345.6,303.1,346.8,302,348.6,302"/>
		<path class="st0" d="M354.4,303.5v-0.7c1.6-0.4,2.2-1.6,2.4-3.4h0.9v3.1h2.3v1h-2.3v5.7c0,1.4,0.4,2.1,1.2,2.1
			c0.5,0,1.1-0.4,1.7-1l0.5,0.5c-0.7,1-1.9,1.6-2.8,1.6c-1.5,0-2.5-1-2.5-3.2v-5.7H354.4z"/>
		<path class="st0" d="M367.2,303.1c-2.2,0-3.3,1.8-3.3,4.1c0,2.3,1,4.1,3.3,4.1c2.2,0,3.3-1.8,3.3-4.1
			C370.5,304.9,369.5,303.1,367.2,303.1 M367.2,312.4c-3,0-5.4-2.3-5.4-5.2c0-2.9,2.4-5.2,5.4-5.2c3,0,5.4,2.3,5.4,5.2
			C372.7,310,370.2,312.4,367.2,312.4"/>
		<path class="st0" d="M389.8,299.7c0-2-1.1-3.7-3.4-3.7h-2.4v7.5h2.4C388.7,303.4,389.8,301.8,389.8,299.7 M390.1,307.7
			c1.6,2,3.4,3.4,5,3.6v0.6h-4.4l-5.3-7.4h-1.3v3.5c0,2.8,0.3,3.3,2.6,3.3v0.6h-7.3v-0.6c2.2,0,2.6-0.5,2.6-3.3v-9.2
			c0-2.8-0.3-3.3-2.6-3.3v-0.6h7.1c3.7,0,5.8,2.1,5.8,4.8c0,2.5-1.7,4.4-4.8,4.8L390.1,307.7z"/>
		<path class="st0" d="M402,305.4c0.3-0.9-0.2-2.3-1.9-2.3c-1.2,0-2.1,0.9-2.5,2.3H402z M400.8,311.2c0.9,0,2.2-0.5,3-1.3l0.5,0.6
			c-0.9,1-2.6,1.9-4.1,1.9c-3,0-5-2.3-5-5.2c0-3,2.5-5.2,5-5.2c2.4,0,4.3,2,3.7,4.5h-6.5C397,309.1,398.1,311.2,400.8,311.2"/>
		<path class="st0" d="M412,311.9v-0.6c1.7,0,1.9-0.4,1.9-3.3v-1.6c0-1.8-0.7-3-2.1-3c-1.3,0-2.9,1.2-2.9,2.8v1.8
			c0,2.9,0.2,3.3,1.7,3.3v0.6H405v-0.6c1.8,0,2.1-0.5,2.1-3.3v-8.9c0-2.8-0.3-3.3-2.1-3.3v-0.6l4-0.7v9.6c0.8-1,2-2,3.5-2
			c2.5,0,3.3,1.8,3.3,4.2v1.8c0,2.8,0.4,3.3,2.2,3.3v0.6H412z"/>
		<path class="st0" d="M424.7,306.8c-2.5,0.6-3.7,1.5-3.7,2.8c0,0.9,0.6,1.4,1.3,1.4c0.6,0,1.2-0.2,2.4-1.4V306.8z M426.6,312.2
			c-1.1,0-1.7-0.6-1.8-1.6c-1.3,1.2-2.3,1.7-3.4,1.7c-1.3,0-2.4-0.9-2.4-2.4c0-2.4,2.7-3.4,5.7-4c0-2.1-0.3-3-1.8-3
			c-0.6,0-1.5,0.5-1.5,1.4c0,0.6-0.4,1-0.9,1c-0.5,0-0.9-0.4-0.9-1c0-1.4,1.7-2.3,3.4-2.3c2.6,0,3.7,1.2,3.7,3.8v4.3
			c0,0.7,0.2,1.1,0.6,1.1c0.3,0,0.6-0.2,0.7-0.4l0.4,0.5C427.8,311.9,427.2,312.2,426.6,312.2"/>
		<path class="st0" d="M431.8,309c0.5,1.4,1.5,2.3,2.7,2.3c2.1,0,3.1-1.8,3.1-4.1c0-2.3-1-4-3.1-4c-1.2,0-2.2,0.9-2.7,2.2V309z
			 M430.5,312.4h-0.6v-13.3c0-2.8-0.4-3.3-2.1-3.3v-0.6l4-0.7v9.2c0.8-1,1.9-1.7,3.3-1.7c2.6,0,4.6,2.3,4.6,5.2
			c0,2.9-2.1,5.2-4.6,5.2c-1.4,0-2.7-0.7-3.4-1.9L430.5,312.4z"/>
		<path class="st0" d="M296.2,322.6v10.1c0,2.8,0.4,3.3,2.7,3.3v0.6h-6.4V336c2.3,0,2.7-0.5,2.7-3.3v-9.2c0-2.8-0.3-3.3-2.7-3.3
			v-0.6h4.8l6,13.8l6-13.8h4.4v0.6c-2.4,0-2.7,0.5-2.7,3.3v9.2c0,2.8,0.3,3.3,2.7,3.3v0.6h-7.6V336c2.3,0,2.7-0.5,2.7-3.3v-9.2
			l-5.9,13.6h-0.4L296.2,322.6z"/>
		<path class="st0" d="M316.3,322.6c0-0.7,0.6-1.2,1.2-1.2c0.7,0,1.2,0.6,1.2,1.2c0,0.7-0.6,1.3-1.2,1.3
			C316.8,323.9,316.3,323.3,316.3,322.6 M314.3,336c1.9,0,2.2-0.5,2.2-3.3v-1.4c0-2.8-0.4-3.3-2.2-3.3v-0.6l4.2-0.7v6
			c0,2.8,0.3,3.3,2.2,3.3v0.6h-6.5V336z"/>
		<path class="st0" d="M321.1,332.1c0-3.3,2.7-5.4,5-5.4c2.3,0,3.4,1,3.4,2c0,0.5-0.3,1.2-1.2,1.2c-0.6,0-1.1-0.5-1.1-1.1
			c0-0.9-0.5-1.2-1-1.2c-1.5,0-2.7,1.9-2.7,4.5c0,2.3,1.1,3.8,3.4,3.8c0.9,0,2.1-0.4,3-1.3l0.5,0.6c-1.1,1.2-2.6,1.9-4.2,1.9
			C323,337.1,321.1,334.9,321.1,332.1"/>
		<path class="st0" d="M329.8,336c1.9,0,2.2-0.5,2.2-3.3v-8.9c0-2.8-0.3-3.3-2.2-3.3v-0.6l4.2-0.7v9.6c0.8-1,2.1-2,3.7-2
			c2.6,0,3.5,1.8,3.5,4.2v1.8c0,2.8,0.4,3.3,2.3,3.3v0.6h-6.3V336c1.8,0,2-0.4,2-3.3V331c0-1.8-0.7-3-2.1-3c-1.4,0-3.1,1.2-3.1,2.8
			v1.8c0,2.9,0.2,3.3,1.8,3.3v0.6h-6V336z"/>
		<path class="st0" d="M351,330.1c0.3-0.9-0.2-2.3-2-2.3c-1.2,0-2.3,0.9-2.7,2.3H351z M343.9,331.8c0-3,2.6-5.2,5.2-5.2
			c2.5,0,4.5,2,3.8,4.5h-6.8c-0.3,2.7,0.8,4.7,3.7,4.7c0.9,0,2.3-0.5,3.1-1.3l0.5,0.6c-1,1-2.7,1.9-4.3,1.9
			C346,337.1,343.9,334.7,343.9,331.8"/>
		<path class="st0" d="M354,336c1.9,0,2.2-0.5,2.2-3.3v-1.4c0-2.8-0.4-3.3-2.2-3.3v-0.6l3.8-0.7c0.1,0.3,0.4,1.4,0.5,2
			c0.8-1,2.1-2,3.9-2c2.5,0,3.7,1.8,3.7,4.2v1.8c0,2.8,0.3,3.3,2.2,3.3v0.6h-6.5V336c1.8,0,2.2-0.5,2.2-3.3V331c0-1.8-0.7-3-2.3-3
			c-1.6,0-3.3,1.3-3.3,2.8v1.8c0,2.9,0.2,3.3,2,3.3v0.6H354V336z"/>
		<path class="st0" d="M375.5,330.1c0.3-0.9-0.2-2.3-2-2.3c-1.2,0-2.3,0.9-2.7,2.3H375.5z M368.4,331.8c0-3,2.6-5.2,5.2-5.2
			c2.5,0,4.5,2,3.9,4.5h-6.8c-0.3,2.7,0.8,4.7,3.7,4.7c0.9,0,2.3-0.5,3.1-1.3l0.5,0.6c-1,1-2.7,1.9-4.3,1.9
			C370.5,337.1,368.4,334.7,368.4,331.8"/>
		<path class="st0" d="M378.5,336c1.9,0,2.2-0.5,2.2-3.3v-1.4c0-2.8-0.4-3.3-2.2-3.3v-0.6l3.8-0.7c0.1,0.3,0.4,1.4,0.5,2
			c0.6-1.1,1.8-2,3-2c1.6,0,2.2,1,2.2,1.8c0,0.6-0.3,1.3-1.1,1.3c-0.5,0-1-0.5-1-1c0-0.6-0.3-0.9-0.9-0.9c-0.7,0-2.2,1-2.2,3.3v1.6
			c0,2.8,0.3,3.3,2.2,3.3v0.6h-6.5V336z"/>
		<path class="st0" d="M393.1,336c2.3,0,2.7-0.5,2.7-3.3v-9.2c0-2.8-0.3-3.3-2.7-3.3v-0.6h7.6v0.6c-2.3,0-2.7,0.5-2.7,3.3v9.2
			c0,2.8,0.3,3.3,2.7,3.3v0.6h-7.6V336z"/>
		<path class="st0" d="M401.3,336c1.9,0,2.2-0.5,2.2-3.3v-1.4c0-2.8-0.4-3.3-2.2-3.3v-0.6l3.8-0.7c0.1,0.3,0.4,1.4,0.5,2
			c0.8-1,2.1-2,3.9-2c2.5,0,3.7,1.8,3.7,4.2v1.8c0,2.8,0.3,3.3,2.2,3.3v0.6h-6.5V336c1.8,0,2.2-0.5,2.2-3.3V331c0-1.8-0.7-3-2.3-3
			c-1.6,0-3.3,1.3-3.3,2.8v1.8c0,2.9,0.2,3.3,2,3.3v0.6h-6.2V336z"/>
		<path class="st0" d="M415.8,332.9h0.6c0,1.3,1.1,3.2,3.1,3.2c0.9,0,1.6-0.7,1.6-1.4c0-0.7-0.6-1.2-1.6-1.7l-1.6-0.8
			c-1.4-0.7-1.9-1.9-1.9-2.8c0-1.5,1.4-2.6,2.9-2.6c1.5,0,2,0.7,2.4,0.7c0.1,0,0.2-0.2,0.2-0.7h0.6v3.3h-0.6c0-1.2-0.8-2.4-2.3-2.4
			c-1,0-1.4,0.5-1.4,1.2c0,0.7,0.5,1,1.7,1.7l1.4,0.7c1.2,0.7,2,1.7,2,2.7c0,1.9-1.5,3.1-3.4,3.1c-1.3,0-2.3-0.9-2.7-0.9
			c-0.3,0-0.4,0.2-0.4,0.9h-0.6V332.9z"/>
		<path class="st0" d="M424.7,333.8v-5.7h-1.5v-0.7c1.7-0.4,2.3-1.6,2.5-3.4h1v3.1h2.5v1h-2.5v5.7c0,1.3,0.4,2,1.3,2
			c0.5,0,1.2-0.3,1.8-1l0.5,0.5c-0.8,1-2,1.6-3,1.6C425.8,337,424.7,336,424.7,333.8"/>
		<path class="st0" d="M432.3,322.6c0-0.7,0.6-1.2,1.2-1.2c0.7,0,1.2,0.6,1.2,1.2c0,0.7-0.6,1.3-1.2,1.3
			C432.9,323.9,432.3,323.3,432.3,322.6 M430.3,336c1.9,0,2.2-0.5,2.2-3.3v-1.4c0-2.8-0.4-3.3-2.2-3.3v-0.6l4.2-0.7v6
			c0,2.8,0.3,3.3,2.2,3.3v0.6h-6.5V336z"/>
		<path class="st0" d="M438,333.8v-5.7h-1.5v-0.7c1.7-0.4,2.3-1.6,2.5-3.4h1v3.1h2.5v1h-2.5v5.7c0,1.3,0.4,2,1.3,2
			c0.5,0,1.2-0.3,1.8-1l0.5,0.5c-0.8,1-2,1.6-3,1.6C439.1,337,438,336,438,333.8"/>
		<path class="st0" d="M445.3,332.8V331c0-2.8-0.3-3.3-2.2-3.3v-0.6h4.2v5.5c0,1.8,0.6,3,2.1,3c1.1,0,3-1,3-2.8V331
			c0-2.8-0.4-3.3-2.3-3.3v-0.6h4.3v5.3c0,2.8,0.4,3.3,2.3,3.3v0.6l-3.8,0.7c-0.1-0.3-0.4-1.3-0.5-1.8c-0.7,0.7-2.1,1.8-3.7,1.8
			C446.2,337.1,445.3,335.2,445.3,332.8"/>
		<path class="st0" d="M458,333.8v-5.7h-1.5v-0.7c1.7-0.4,2.3-1.6,2.5-3.4h1v3.1h2.5v1H460v5.7c0,1.3,0.4,2,1.3,2
			c0.5,0,1.2-0.3,1.8-1l0.5,0.5c-0.8,1-2,1.6-3,1.6C459.1,337,458,336,458,333.8"/>
		<path class="st0" d="M471.1,330.1c0.3-0.9-0.2-2.3-2-2.3c-1.2,0-2.3,0.9-2.7,2.3H471.1z M463.9,331.8c0-3,2.6-5.2,5.2-5.2
			c2.5,0,4.5,2,3.8,4.5h-6.8c-0.3,2.7,0.8,4.7,3.7,4.7c0.9,0,2.3-0.5,3.1-1.3l0.5,0.6c-1,1-2.7,1.9-4.3,1.9
			C466,337.1,463.9,334.7,463.9,331.8"/>
	</g>
</g>
</svg>
